<?xml version="1.0" encoding="utf-8"?>
<!-- Generator: Adobe Illustrator 28.0.0, SVG Export Plug-In . SVG Version: 6.00 Build 0)  -->
<svg version="1.1" id="Layer_1" xmlns="http://www.w3.org/2000/svg" xmlns:xlink="http://www.w3.org/1999/xlink" x="0px" y="0px"
	 viewBox="0 0 485.7 284.8" style="enable-background:new 0 0 485.7 284.8;" xml:space="preserve">
<style type="text/css">
	.st0{fill:#FFFFFF;}
</style>
<polygon class="st0" points="12.7,256.8 82.3,256.8 82.3,238.9 32.7,238.9 32.7,219.7 75.8,219.7 75.8,201.8 32.7,201.8 32.7,193.2 
	12.7,193.2 "/>
<path class="st0" d="M156.1,196.6v0.3c0,7.7-5.6,12.9-15.4,12.9h-20.4v-16.6h-20.1v63.6h20.1v-29.3h15.8l19.6,29.3h23.5l-22.3-32.6
	c11.6-4.3,19.6-13.6,19.6-28.3v-0.3c0-0.8,0-1.6-0.1-2.3h-20.7C155.9,194.3,156.1,195.4,156.1,196.6z"/>
<path class="st0" d="M250.5,196.6v0.3c0,7.7-5.6,12.9-15.4,12.9h-20.4v-16.6h-20.1v63.6h20.1v-29.3h15.8l19.6,29.3h23.5l-22.3-32.6
	c11.6-4.3,19.6-13.6,19.6-28.3v-0.3c0-0.8,0-1.6-0.1-2.3h-20.7C250.3,194.3,250.5,195.4,250.5,196.6z"/>
<path class="st0" d="M361.1,211.1v0.3c0,15.7-11.2,28.5-27.4,28.5c-16.2,0-27.7-13.1-27.7-28.7v-0.3c0-6.6,2-12.8,5.6-17.6h-23.1
	c-2.2,5.5-3.5,11.6-3.5,17.9v0.3c0,26,20.2,47,48.4,47c28.2,0,48.7-21.3,48.7-47.3v-0.3c0-6.2-1.2-12.2-3.3-17.6h-23.5
	C359,198.1,361.1,204.4,361.1,211.1z"/>
<path class="st0" d="M455.9,196.6v0.3c0,7.7-5.6,12.9-15.4,12.9h-20.4v-16.6H400v63.6h20.1v-29.3h15.8l19.6,29.3H479l-22.3-32.6
	c11.6-4.3,19.6-13.6,19.6-28.3v-0.3c0-0.8,0-1.6-0.1-2.3h-20.7C455.8,194.3,455.9,195.4,455.9,196.6z"/>
<g>
	<path class="st0" d="M83.2,144.5H15.3L9.5,108l100.2-88.7h55.6l-24,89.7h18.2l-9.7,35.4h-17.7l-7.1,25.9H76.3L83.2,144.5z
		 M92.6,109.8l10-37.6l-42.6,37.6H92.6z"/>
	<path class="st0" d="M408.8,170.4h-48.6l-7.1-25.9h-17.7l-9.7-35.4h18l-24-89.7h55.6l100.2,88.7l-5.8,36.4h-67.9L408.8,170.4z
		 M425.1,109.8l-42.6-37.6l10,37.6H425.1z"/>
	<path class="st0" d="M242.6,19.4c-41.8,0-75.7,33.9-75.7,75.7s33.9,75.7,75.7,75.7s75.7-33.9,75.7-75.7S284.4,19.4,242.6,19.4z
		 M229.8,104.9c3.3,3.3,3.3,8.4,0,11.6c-3.3,3.1-8.4,3.3-11.6,0l-9.8-9.8l-9.8,9.8c-3.3,3.3-8.4,3.3-11.6,0c-3.1-3.3-3.3-8.4,0-11.6
		l9.8-9.8l-9.8-9.8c-3.3-3.3-3.3-8.4,0-11.6c3.3-3.1,8.4-3.3,11.6,0l9.8,9.8l9.8-9.8c3.3-3.3,8.4-3.3,11.6,0c3.1,3.3,3.3,8.4,0,11.6
		l-9.8,9.8L229.8,104.9z M276.5,119c-13.2,0-23.9-10.7-23.9-23.9s10.7-23.9,23.9-23.9s23.9,10.7,23.9,23.9S289.8,119,276.5,119z"/>
</g>
</svg>
