<?xml version="1.0" encoding="utf-8"?>
<!-- Generator: Adobe Illustrator 28.0.0, SVG Export Plug-In . SVG Version: 6.00 Build 0)  -->
<svg version="1.1" id="Layer_1" xmlns="http://www.w3.org/2000/svg" xmlns:xlink="http://www.w3.org/1999/xlink" x="0px" y="0px"
	 viewBox="0 0 485.7 284.8" style="enable-background:new 0 0 485.7 284.8;" xml:space="preserve">
<style type="text/css">
	.st0{fill:#F04D23;}
</style>
<polygon class="st0" points="52.3,236.6 110,236.6 110,221.8 68.9,221.8 68.9,205.9 104.6,205.9 104.6,191 68.9,191 68.9,183.9 
	52.3,183.9 "/>
<path class="st0" d="M171.2,186.7v0.2c0,6.4-4.7,10.7-12.8,10.7h-16.9v-13.7h-16.7v52.7h16.7v-24.2h13.1l16.2,24.2h19.5l-18.5-27.1
	c9.6-3.6,16.2-11.3,16.2-23.5v-0.2c0-0.7,0-1.3-0.1-1.9h-17.1C171.1,184.8,171.2,185.7,171.2,186.7z"/>
<path class="st0" d="M249.4,186.7v0.2c0,6.4-4.7,10.7-12.8,10.7h-16.9v-13.7h-16.7v52.7h16.7v-24.2h13.1l16.2,24.2h19.5l-18.5-27.1
	c9.6-3.6,16.2-11.3,16.2-23.5v-0.2c0-0.7,0-1.3-0.1-1.9h-17.1C249.3,184.8,249.4,185.7,249.4,186.7z"/>
<path class="st0" d="M341.1,198.7v0.2c0,13-9.3,23.6-22.7,23.6s-22.9-10.8-22.9-23.8v-0.2c0-5.5,1.7-10.6,4.6-14.6h-19.2
	c-1.9,4.6-2.9,9.6-2.9,14.8v0.2c0,21.5,16.8,39,40.1,39c23.4,0,40.4-17.6,40.4-39.2v-0.2c0-5.2-1-10.1-2.8-14.6h-19.5
	C339.3,188,341.1,193.2,341.1,198.7z"/>
<path class="st0" d="M419.6,186.7v0.2c0,6.4-4.7,10.7-12.8,10.7H390v-13.7h-16.7v52.7H390v-24.2h13.1l16.2,24.2h19.5l-18.5-27.1
	c9.6-3.6,16.2-11.3,16.2-23.5v-0.2c0-0.7,0-1.3-0.1-1.9h-17.1C419.5,184.8,419.6,185.7,419.6,186.7z"/>
<g>
	<path class="st0" d="M110.8,143.5H54.5l-4.8-30.2l83-73.5h46.1l-19.9,74.3H174l-8,29.3h-14.7l-5.9,21.5h-40.3L110.8,143.5z
		 M118.6,114.8l8.3-31.2l-35.3,31.2H118.6z"/>
	<path class="st0" d="M380.6,165h-40.3l-5.9-21.5h-14.7l-8-29.3h14.9l-19.9-74.3h46.1l83,73.5l-4.8,30.2h-56.3L380.6,165z
		 M394.1,114.8l-35.3-31.2l8.3,31.2H394.1z"/>
	<path class="st0" d="M242.9,39.9c-34.6,0-62.7,28.1-62.7,62.7s28.1,62.7,62.7,62.7s62.7-28.1,62.7-62.7S277.5,39.9,242.9,39.9z
		 M232.3,110.7c2.7,2.7,2.7,7,0,9.6s-7,2.7-9.6,0l-8.1-8.1l-8.1,8.1c-2.7,2.7-7,2.7-9.6,0s-2.7-7,0-9.6l8.1-8.1l-8.1-8.1
		c-2.7-2.7-2.7-7,0-9.6s7-2.7,9.6,0l8.1,8.1l8.1-8.1c2.7-2.7,7-2.7,9.6,0s2.7,7,0,9.6l-8.1,8.1L232.3,110.7z M271,122.4
		c-10.9,0-19.8-8.9-19.8-19.8s8.9-19.8,19.8-19.8s19.8,8.9,19.8,19.8S282,122.4,271,122.4z"/>
</g>
<path class="st0" d="M485.7,284.8H0V0h485.7V284.8z M11,273.8h463.7V11H11V273.8z"/>
</svg>
