<?xml version="1.0" encoding="utf-8"?>
<!-- Generator: Adobe Illustrator 28.0.0, SVG Export Plug-In . SVG Version: 6.00 Build 0)  -->
<svg version="1.1" id="Layer_1" xmlns="http://www.w3.org/2000/svg" xmlns:xlink="http://www.w3.org/1999/xlink" x="0px" y="0px"
	 viewBox="0 0 128 128" style="enable-background:new 0 0 128 128;" xml:space="preserve">
<style type="text/css">
	.st0{fill:#1C1F21;}
	.st1{fill:#FF490C;}
</style>
<circle class="st0" cx="64" cy="64" r="63.3"/>
<g>
	<path class="st1" d="M24.2,58.2c1.4-10.7,6.8-20.1,15.3-26.7c1.8-1.4,3.6-2.6,5.5-3.6l7.1-12.6C45.5,17,39.4,20,33.9,24.2
		C23.4,32.3,16.6,44,15,57.1c-0.9,7.1-0.3,14.1,1.7,20.8l7.1-12.7C23.8,63,23.9,60.6,24.2,58.2z"/>
	<path class="st1" d="M95.9,38.9c6,7.8,8.9,17.3,8.2,27.1l7.1,12.1c0.8-2.7,1.5-5.4,1.8-8.3c1.7-13.1-1.8-26.1-9.9-36.5
		C95.8,23.8,85.5,17.4,74,15l7.1,12.1C86.9,29.7,91.9,33.8,95.9,38.9z"/>
	<path class="st1" d="M84.1,98.3c-6.1,3.6-13,5.4-20.1,5.4c-7.2,0-14.1-1.9-20.2-5.3H28.9C38.1,107.8,50.7,113,64,113
		c11,0,21.4-3.6,30.2-10.3c1.8-1.4,3.5-2.9,4.9-4.4L84.1,98.3z"/>
	<polygon class="st1" points="69.9,26.5 58.2,26.5 33.4,88.2 43.4,88.2 60.5,46.3 64,37.3 84.6,88.2 94.7,88.2 	"/>
</g>
</svg>
