<?xml version="1.0" encoding="utf-8"?>
<!-- Generator: Adobe Illustrator 28.0.0, SVG Export Plug-In . SVG Version: 6.00 Build 0)  -->
<svg version="1.1" id="Layer_1" xmlns="http://www.w3.org/2000/svg" xmlns:xlink="http://www.w3.org/1999/xlink" x="0px" y="0px"
	 viewBox="0 0 1325.7 286" style="enable-background:new 0 0 1325.7 286;" xml:space="preserve">
<style type="text/css">
	.st0{fill:#FF490C;}
	.st1{fill:#F0F2F5;}
</style>
<g>
	<path class="st0" d="M33.2,129.9c3.8-29.6,19-55.9,42.6-74.1c4.9-3.8,10-7.1,15.3-9.9l19.9-35c-18.3,4.5-35.5,12.8-50.9,24.6
		C31.1,57.8,12.5,90.2,7.7,126.6c-2.6,19.7-0.9,39.3,4.8,57.8l19.9-35.1C32.1,142.8,32.4,136.4,33.2,129.9z"/>
	<path class="st0" d="M232.5,76.2c16.7,21.7,24.7,48.2,22.9,75.3l19.8,33.7c2.3-7.5,4-15.2,5-23.1c4.7-36.4-5-72.5-27.4-101.6
		C232.5,34,204,16.3,172.1,9.7l19.7,33.5C207.6,50.7,221.5,61.8,232.5,76.2z"/>
	<path class="st0" d="M199.9,241c-16.9,9.8-36,15-55.8,15c-20.1,0-39.3-5.3-56.1-15l-41.6,0c25.7,26,60.4,40.7,97.7,40.7
		c30.5,0,59.5-9.9,83.7-28.5c4.9-3.8,9.5-7.9,13.8-12.2L199.9,241z"/>
	<polygon class="st0" points="160.3,41.4 127.7,41.4 58.8,213.2 86.8,213.2 134,96.5 144,71.5 201.1,213.2 229.2,213.2 	"/>
</g>
<path class="st0" d="M939.1,126.8c-16,0-24.4,7.6-25.1,22.7l94.3,21.5c12.8,2.7,19.2,13.2,19.2,31.6c0,25.3-14.7,37.9-44.2,37.9
	h-44.2c-29.5,0-44.2-14.7-44.2-44.2V152c0-29.5,14.7-44.2,44.2-44.2h44.2c29.5,0,44.2,14.7,44.2,44.2h-18.9
	c0-16.8-8.4-25.3-25.3-25.3L939.1,126.8L939.1,126.8z M983.3,221.5c16.9,0,25.3-8.4,25.3-25.3c0-3.2-1.7-5.4-5.2-6.6l-89.5-20.6
	v27.2c0,16.9,8.4,25.3,25.3,25.3L983.3,221.5L983.3,221.5z"/>
<path class="st1" d="M546.6,107.8h50.5v18.9h-50.5c-29.5,0-44.2,14.7-44.2,44.2v69.5h-18.9V171C483.4,128.9,504.5,107.8,546.6,107.8
	z"/>
<path class="st1" d="M668.4,174.3l85.1,66.2h-12h-18.9l-69.5-54.2L627.9,206v34.5H609V51h18.9v131l101.4-79.6l12.2,14.7l0,0
	L668.4,174.3z"/>
<path class="st1" d="M794.5,126.8c-16.9,0-25.3,8.4-25.3,25.3h-18.9c0-29.5,14.7-44.2,44.2-44.2h44.2c29.5,0,44.2,14.7,44.2,44.2
	v44.2c0,29.5-14.7,44.2-44.2,44.2h-44.2c-29.5,0-44.2-12.6-44.2-37.9c0-18.3,6.4-28.9,19.2-31.6l94.3-21.5
	c-0.7-15.2-9.1-22.7-25.1-22.7L794.5,126.8L794.5,126.8z M838.6,221.5c16.8,0,25.3-8.4,25.3-25.3v-27.2l-89.5,20.6
	c-3.5,1.2-5.2,3.4-5.2,6.6c0,16.9,8.4,25.3,25.3,25.3L838.6,221.5L838.6,221.5z"/>
<path class="st1" d="M1108.8,126.8h-50.5v113.7h-18.9V107.8h69.5c42.1,0,63.2,21.1,63.2,63.1v69.5H1153V171
	C1153,141.5,1138.3,126.8,1108.8,126.8z"/>
<path class="st1" d="M1186.8,240.4v-18.9h94.7c12.6,0,18.9-6.3,18.9-18.9s-6.3-18.9-18.9-18.9h-56.8c-25.3,0-37.9-12.6-37.9-37.9
	c0-25.3,12.6-37.9,37.9-37.9h94.8v18.9h-94.8c-12.6,0-18.9,6.3-18.9,18.9s6.3,18.9,18.9,18.9h56.8c25.3,0,37.9,12.6,37.9,37.9
	c0,25.3-12.6,37.9-37.9,37.9H1186.8z"/>
<polygon class="st1" points="397.3,77.3 450.7,240.4 472.8,240.4 411.1,51 383.6,51 321.9,240.4 343.8,240.4 386.6,110.2 "/>
</svg>
