<?xml version="1.0" encoding="utf-8"?>
<!-- Generator: Adobe Illustrator 28.0.0, SVG Export Plug-In . SVG Version: 6.00 Build 0)  -->
<svg version="1.1" id="Layer_1" xmlns="http://www.w3.org/2000/svg" xmlns:xlink="http://www.w3.org/1999/xlink" x="0px" y="0px"
	 viewBox="0 0 397 460" style="enable-background:new 0 0 397 460;" xml:space="preserve">
<style type="text/css">
	.st0{fill:#FF490C;}
	.st1{fill:#1C1F21;}
</style>
<g>
	<path class="st0" d="M45.5,169.6C50.7,129,71.5,92.9,104,67.9c6.7-5.2,13.7-9.7,21-13.6l27.3-48c-25.1,6.2-48.8,17.5-69.8,33.7
		c-39.9,30.7-65.5,75.1-72,125.1C7,192.1,9.3,219,17,244.4l27.3-48.1C44,187.4,44.3,178.5,45.5,169.6z"/>
	<path class="st0" d="M318.9,95.9c22.9,29.8,33.9,66.1,31.5,103.3l27.1,46.2c3.2-10.2,5.5-20.8,6.9-31.7
		c6.5-49.9-6.8-99.4-37.6-139.3c-28-36.3-67.1-60.6-110.8-69.6l27,46C284.7,61,303.8,76.3,318.9,95.9z"/>
	<path class="st0" d="M274.2,322.1c-23.2,13.5-49.3,20.6-76.6,20.6c-27.6,0-53.9-7.2-76.9-20.5l-57.1,0
		c35.2,35.7,82.9,55.8,134,55.8c41.9,0,81.6-13.5,114.9-39.1c6.7-5.2,13.1-10.8,19-16.7L274.2,322.1z"/>
	<polygon class="st0" points="219.8,48.3 175.1,48.3 80.6,283.9 119,283.9 183.7,123.9 197.5,89.5 275.8,283.9 314.3,283.9 	"/>
</g>
<path class="st0" d="M243,411.1c-6.2,0-9.5,2.9-9.8,8.8l36.6,8.3c5,1,7.5,5.1,7.5,12.2c0,9.8-5.7,14.7-17.1,14.7H243
	c-11.4,0-17.1-5.7-17.1-17.1v-17.1c0-11.4,5.7-17.1,17.1-17.1h17.1c11.4,0,17.1,5.7,17.1,17.1h-7.4c0-6.5-3.3-9.8-9.8-9.8L243,411.1
	L243,411.1z M260.1,447.9c6.5,0,9.8-3.3,9.8-9.8c0-1.2-0.7-2.1-2-2.5l-34.8-8v10.5c0,6.5,3.3,9.8,9.8,9.8L260.1,447.9L260.1,447.9z"
	/>
<path class="st1" d="M90.6,403.8h19.6v7.4H90.6c-11.4,0-17.1,5.7-17.1,17.1v27h-7.3v-27C66.1,411.9,74.3,403.8,90.6,403.8z"/>
<path class="st1" d="M137.9,429.5l33,25.7h-4.6H159l-27-21l-9.8,7.6v13.4h-7.4v-73.5h7.4v50.8l39.4-30.9l4.8,5.7l0,0L137.9,429.5z"
	/>
<path class="st1" d="M186.8,411.1c-6.5,0-9.8,3.3-9.8,9.8h-7.4c0-11.4,5.7-17.1,17.1-17.1H204c11.4,0,17.1,5.7,17.1,17.1v17.1
	c0,11.4-5.7,17.1-17.1,17.1h-17.1c-11.4,0-17.1-4.9-17.1-14.7c0-7.1,2.5-11.2,7.4-12.2l36.6-8.3c-0.3-5.9-3.5-8.8-9.8-8.8
	L186.8,411.1L186.8,411.1z M204,447.9c6.5,0,9.8-3.3,9.8-9.8v-10.5l-34.8,8c-1.3,0.5-2,1.3-2,2.5c0,6.5,3.3,9.8,9.8,9.8L204,447.9
	L204,447.9z"/>
<path class="st1" d="M308.8,411.1h-19.6v44.1h-7.4v-51.5h27c16.3,0,24.5,8.2,24.5,24.5v27H326v-27
	C326,416.8,320.2,411.1,308.8,411.1z"/>
<path class="st1" d="M339.1,455.2v-7.4h36.8c4.9,0,7.4-2.5,7.4-7.4s-2.5-7.4-7.4-7.4h-22c-9.8,0-14.7-4.9-14.7-14.7
	c0-9.8,4.9-14.7,14.7-14.7h36.8v7.4h-36.8c-4.9,0-7.4,2.5-7.4,7.4s2.5,7.4,7.4,7.4h22c9.8,0,14.7,4.9,14.7,14.7
	c0,9.8-4.9,14.7-14.7,14.7H339.1z"/>
<polygon class="st1" points="32.7,391.9 53.4,455.2 62,455.2 38.1,381.7 27.4,381.7 3.4,455.2 12,455.2 28.6,404.7 "/>
</svg>
