<?xml version="1.0" encoding="utf-8"?>
<!-- Generator: Adobe Illustrator 28.0.0, SVG Export Plug-In . SVG Version: 6.00 Build 0)  -->
<svg version="1.1" baseProfile="tiny" id="Layer_1" xmlns="http://www.w3.org/2000/svg" xmlns:xlink="http://www.w3.org/1999/xlink"
	 x="0px" y="0px" viewBox="0 0 888 1024" overflow="visible" xml:space="preserve">
<g>
	<path fill="#FF490C" d="M104.7,375.5c11.7-90.3,57.9-170.6,130.1-226.1c14.9-11.4,30.5-21.6,46.7-30.3l60.7-106.8
		c-55.9,13.7-108.4,38.9-155.2,75c-88.7,68.3-145.6,167.1-160,278.1c-7.8,60.1-2.7,120,14.5,176.3l60.8-107
		C101.4,415.1,102.1,395.4,104.7,375.5z"/>
	<path fill="#FF490C" d="M712.7,211.7c51,66.2,75.4,147.1,70,229.7l60.4,102.7c7-22.8,12.2-46.3,15.3-70.5
		c14.4-111-15.2-221.1-83.5-309.8C712.7,83.1,625.7,29.1,528.5,9l60.1,102.3C636.6,134,679.1,168,712.7,211.7z"/>
	<path fill="#FF490C" d="M613.2,714.6c-51.6,30-109.7,45.7-170.3,45.7c-61.3,0-119.9-16-171.1-45.7l-126.9,0
		c78.3,79.4,184.4,124.1,298,124.1c93.1,0,181.5-30.1,255.4-87c15-11.5,29-24,42.2-37.2L613.2,714.6z"/>
	<polygon fill="#FF490C" points="492.4,105.8 393,105.8 182.9,629.6 268.2,629.6 412.1,273.8 442.7,197.5 616.9,629.6 702.5,629.6 	
		"/>
</g>
<path fill="#F8F9FA" d="M543.8,912.5c-13.8,0-21,6.5-21.7,19.6l81.4,18.5c11,2.3,16.6,11.4,16.6,27.2c0,21.8-12.7,32.7-38.1,32.7
	h-38.1c-25.4,0-38.1-12.7-38.1-38.1v-38.1c0-25.4,12.7-38.1,38.1-38.1h38.1c25.4,0,38.1,12.7,38.1,38.1h-16.3
	c0-14.5-7.3-21.8-21.8-21.8H543.8z M581.9,994.2c14.5,0,21.8-7.3,21.8-21.8c0-2.8-1.5-4.6-4.5-5.7L522,949v23.4
	c0,14.5,7.3,21.8,21.8,21.8H581.9z"/>
<path fill="#FF490C" d="M205.2,896.1h43.6v16.3h-43.6c-25.4,0-38.1,12.7-38.1,38.1v59.9h-16.3v-59.9
	C150.7,914.3,168.8,896.1,205.2,896.1z"/>
<path fill="#FF490C" d="M310.3,953.5l73.4,57.1h-10.3H357l-59.9-46.7l-21.8,17v29.7H259V847.1h16.3v113l87.5-68.7l10.6,12.7l0,0
	L310.3,953.5z"/>
<path fill="#FF490C" d="M419,912.5c-14.5,0-21.8,7.3-21.8,21.8h-16.3c0-25.4,12.7-38.1,38.1-38.1h38.1c25.4,0,38.1,12.7,38.1,38.1
	v38.1c0,25.4-12.7,38.1-38.1,38.1H419c-25.4,0-38.1-10.9-38.1-32.7c0-15.8,5.5-24.9,16.6-27.2l81.4-18.5
	c-0.7-13.1-7.9-19.6-21.7-19.6H419z M457.2,994.2c14.5,0,21.8-7.3,21.8-21.8V949l-77.3,17.8c-3,1-4.5,2.9-4.5,5.7
	c0,14.5,7.3,21.8,21.8,21.8H457.2z"/>
<path fill="#FF490C" d="M690.2,912.5h-43.6v98.1h-16.3V896.1h59.9c36.3,0,54.5,18.2,54.5,54.5v59.9h-16.3v-59.9
	C728.4,925.2,715.7,912.5,690.2,912.5z"/>
<path fill="#FF490C" d="M757.5,1010.6v-16.3h81.7c10.9,0,16.3-5.4,16.3-16.3c0-10.9-5.4-16.3-16.3-16.3h-49
	c-21.8,0-32.7-10.9-32.7-32.7c0-21.8,10.9-32.7,32.7-32.7H872v16.3h-81.8c-10.9,0-16.3,5.4-16.3,16.3c0,10.9,5.5,16.3,16.3,16.3h49
	c21.8,0,32.7,10.9,32.7,32.7c0,21.8-10.9,32.7-32.7,32.7H757.5z"/>
<polygon fill="#FF490C" points="76.4,869.8 122.5,1010.6 141.5,1010.6 88.3,847.1 64.5,847.1 11.3,1010.6 30.3,1010.6 67.1,898.2 
	"/>
</svg>
